# xmcd
#
# Track frame offsets:
#	150
#	16280
#	33125
#	47330
#	67050
#	85007
#	100820
#	115727
#	132210
#	150315
#
# Disc length: 2229 seconds
#
# Revision: 0
# Processed by: cddbd v1.5.2PL0 Copyright (c) Steve Scherf et al.
# Submitted via: EasyCDDAExtractor 15.3.0.1
#
DISCID=6b08b30a
DTITLE=Edith Marquez - Extraviate
DYEAR=2001
DGENRE=Latin
TTITLE0=Se Te Acabo
TTITLE1=Esa Soy Yo
TTITLE2=Extraviate
TTITLE3=Mi Nombre
TTITLE4=Entre Ella Y Yo
TTITLE5=Que Mas
TTITLE6=Juramentos
TTITLE7=Embrujame
TTITLE8=Sola
TTITLE9=No Sospecho
EXTD=YEAR: 2001\n
EXTT0=
EXTT1=
EXTT2=
EXTT3=
EXTT4=
EXTT5=
EXTT6=
EXTT7=
EXTT8=
EXTT9=
PLAYORDER=
